<svg width="180" height="23" viewBox="0 0 180 23" fill="none" xmlns="http://www.w3.org/2000/svg">
<path d="M8.13363 1.36C7.41363 1.4 6.88363 1.48 6.54363 1.6C6.22363 1.72 6.00363 1.95 5.88363 2.29C5.76363 2.63 5.70363 3.18 5.70363 3.94V18.82C5.70363 19.58 5.76363 20.13 5.88363 20.47C6.00363 20.81 6.22363 21.04 6.54363 21.16C6.88363 21.26 7.41363 21.31 8.13363 21.31H10.3236C11.5636 21.31 12.5036 21.14 13.1436 20.8C13.8036 20.44 14.2836 19.87 14.5836 19.09C14.8836 18.31 15.1036 17.18 15.2436 15.7H15.9336C15.8736 16.32 15.8436 17.14 15.8436 18.16C15.8436 19.3 15.9136 20.58 16.0536 22C14.6936 21.94 12.4036 21.91 9.18363 21.91C5.34363 21.91 2.44363 21.94 0.483633 22V21.4C1.20363 21.36 1.72363 21.28 2.04363 21.16C2.38363 21.04 2.61363 20.81 2.73363 20.47C2.85363 20.13 2.91363 19.58 2.91363 18.82V3.94C2.91363 3.18 2.85363 2.63 2.73363 2.29C2.61363 1.95 2.38363 1.72 2.04363 1.6C1.72363 1.48 1.20363 1.4 0.483633 1.36V0.76C1.32363 0.819999 2.60363 0.849999 4.32363 0.849999C5.92363 0.849999 7.19363 0.819999 8.13363 0.76V1.36ZM21.7504 22.21C20.4904 22.21 19.5504 21.9 18.9304 21.28C18.3304 20.64 18.0304 19.76 18.0304 18.64C18.0304 17.74 18.2704 17 18.7504 16.42C19.2504 15.84 19.8304 15.38 20.4904 15.04C21.1704 14.7 22.0604 14.34 23.1604 13.96C24.2804 13.58 25.1104 13.23 25.6504 12.91C26.1904 12.59 26.4604 12.16 26.4604 11.62V9.76C26.4604 8.6 26.2104 7.81 25.7104 7.39C25.2304 6.95 24.5504 6.73 23.6704 6.73C22.2704 6.73 21.2804 7.09 20.7004 7.81C21.1004 7.91 21.4304 8.12 21.6904 8.44C21.9704 8.76 22.1104 9.16 22.1104 9.64C22.1104 10.14 21.9504 10.54 21.6304 10.84C21.3104 11.12 20.9004 11.26 20.4004 11.26C19.8404 11.26 19.4204 11.09 19.1404 10.75C18.8604 10.39 18.7204 9.96 18.7204 9.46C18.7204 8.98 18.8304 8.58 19.0504 8.26C19.2904 7.94 19.6404 7.62 20.1004 7.3C20.5804 6.96 21.1904 6.68 21.9304 6.46C22.6704 6.24 23.4804 6.13 24.3604 6.13C25.9204 6.13 27.1004 6.5 27.9004 7.24C28.4004 7.7 28.7304 8.26 28.8904 8.92C29.0704 9.56 29.1604 10.41 29.1604 11.47V19.81C29.1604 20.31 29.2304 20.67 29.3704 20.89C29.5104 21.11 29.7504 21.22 30.0904 21.22C30.3304 21.22 30.5504 21.17 30.7504 21.07C30.9704 20.95 31.2004 20.79 31.4404 20.59L31.7704 21.1C31.2504 21.5 30.8004 21.79 30.4204 21.97C30.0604 22.13 29.6004 22.21 29.0404 22.21C28.0804 22.21 27.4104 21.97 27.0304 21.49C26.6504 21.01 26.4604 20.36 26.4604 19.54C25.8604 20.54 25.1704 21.24 24.3904 21.64C23.6104 22.02 22.7304 22.21 21.7504 22.21ZM23.0704 21.01C24.3904 21.01 25.5204 20.25 26.4604 18.73V12.85C26.2804 13.13 26.0304 13.36 25.7104 13.54C25.3904 13.72 24.9004 13.96 24.2404 14.26C23.4804 14.58 22.8604 14.89 22.3804 15.19C21.9204 15.47 21.5204 15.86 21.1804 16.36C20.8404 16.86 20.6704 17.5 20.6704 18.28C20.6704 19.18 20.8904 19.86 21.3304 20.32C21.7704 20.78 22.3504 21.01 23.0704 21.01ZM40.1718 6.13C41.5118 6.13 42.6718 6.45 43.6518 7.09C44.5918 7.71 45.0618 8.48 45.0618 9.4C45.0618 9.92 44.9118 10.33 44.6118 10.63C44.3118 10.93 43.9318 11.08 43.4718 11.08C43.0118 11.08 42.6218 10.95 42.3018 10.69C41.9818 10.41 41.8218 10.04 41.8218 9.58C41.8218 9.16 41.9418 8.81 42.1818 8.53C42.4218 8.23 42.7218 8.03 43.0818 7.93C42.8818 7.57 42.5218 7.27 42.0018 7.03C41.5018 6.79 40.9618 6.67 40.3818 6.67C39.6418 6.67 38.9518 6.91 38.3118 7.39C37.6718 7.85 37.1418 8.63 36.7218 9.73C36.3018 10.81 36.0918 12.24 36.0918 14.02C36.0918 16.5 36.4918 18.31 37.2918 19.45C38.0918 20.57 39.1318 21.13 40.4118 21.13C41.2718 21.13 42.0818 20.88 42.8418 20.38C43.6218 19.88 44.2618 19.1 44.7618 18.04L45.3318 18.25C44.9918 19.39 44.3518 20.37 43.4118 21.19C42.4918 22.01 41.2918 22.42 39.8118 22.42C38.5718 22.42 37.4418 22.1 36.4218 21.46C35.4218 20.82 34.6318 19.9 34.0518 18.7C33.4718 17.48 33.1818 16.07 33.1818 14.47C33.1818 12.85 33.4718 11.41 34.0518 10.15C34.6518 8.89 35.4818 7.91 36.5418 7.21C37.6018 6.49 38.8118 6.13 40.1718 6.13ZM60.2816 18.4C59.9216 19.5 59.2416 20.45 58.2416 21.25C57.2616 22.03 56.0716 22.42 54.6716 22.42C53.2516 22.42 52.0216 22.1 50.9816 21.46C49.9416 20.8 49.1416 19.89 48.5816 18.73C48.0416 17.55 47.7716 16.19 47.7716 14.65C47.7716 12.91 48.0516 11.4 48.6116 10.12C49.1716 8.84 49.9616 7.86 50.9816 7.18C52.0016 6.48 53.1916 6.13 54.5516 6.13C56.3516 6.13 57.7316 6.68 58.6916 7.78C59.6716 8.86 60.1616 10.51 60.1616 12.73H50.7716C50.7116 13.29 50.6816 13.93 50.6816 14.65C50.6816 15.97 50.8916 17.12 51.3116 18.1C51.7516 19.08 52.3216 19.84 53.0216 20.38C53.7416 20.9 54.4916 21.16 55.2716 21.16C56.2316 21.16 57.0816 20.93 57.8216 20.47C58.5616 20.01 59.1816 19.24 59.6816 18.16L60.2816 18.4ZM54.4316 6.7C53.4916 6.7 52.6816 7.16 52.0016 8.08C51.3216 9 50.9016 10.36 50.7416 12.16H57.2816C57.3216 10.6 57.0916 9.3 56.5916 8.26C56.1116 7.22 55.3916 6.7 54.4316 6.7ZM89.1681 0.339998C90.4281 0.339998 91.4681 0.709998 92.2881 1.45C93.1281 2.17 93.5481 3.15 93.5481 4.39C93.5481 5.35 93.2881 6.19 92.7681 6.91C92.2481 7.61 91.5581 8.17 90.6981 8.59C89.9381 8.95 88.4581 9.47 86.2581 10.15C87.3781 10.63 88.1981 11.32 88.7181 12.22C89.2581 13.1 89.5281 14.11 89.5281 15.25C89.5281 16.49 89.1581 17.66 88.4181 18.76C87.6781 19.86 86.6181 20.75 85.2381 21.43C83.8581 22.09 82.2381 22.42 80.3781 22.42C78.6381 22.42 77.0181 22.12 75.5181 21.52C74.0381 20.9 72.8581 20.03 71.9781 18.91C71.0981 17.77 70.6581 16.45 70.6581 14.95C70.6581 13.63 70.9781 12.52 71.6181 11.62C72.2781 10.7 73.0281 10.01 73.8681 9.55C74.7081 9.07 75.4881 8.74 76.2081 8.56C75.2281 8.14 74.4781 7.58 73.9581 6.88C73.4381 6.18 73.1781 5.45 73.1781 4.69C73.1781 4.03 73.3681 3.42 73.7481 2.86C74.1481 2.28 74.7281 1.82 75.4881 1.48C76.2681 1.12 77.1881 0.939999 78.2481 0.939999C79.5881 0.939999 80.6281 1.24 81.3681 1.84C81.7281 2.14 81.9981 2.48 82.1781 2.86C82.3781 3.22 82.4781 3.57 82.4781 3.91C82.4781 4.39 82.3081 4.78 81.9681 5.08C81.6281 5.36 81.2381 5.5 80.7981 5.5C80.3781 5.5 80.0081 5.37 79.6881 5.11C79.3881 4.83 79.2381 4.46 79.2381 4C79.2381 3.56 79.3881 3.19 79.6881 2.89C79.9881 2.57 80.3681 2.39 80.8281 2.35C80.7281 2.09 80.4681 1.87 80.0481 1.69C79.6481 1.49 79.1481 1.39 78.5481 1.39C77.5081 1.39 76.6681 1.71 76.0281 2.35C75.3881 2.97 75.0681 3.84 75.0681 4.96C75.0681 6.3 75.5781 7.44 76.5981 8.38C77.2981 8.26 77.9181 8.2 78.4581 8.2C78.8181 8.2 79.1081 8.26 79.3281 8.38C79.5481 8.5 79.6581 8.67 79.6581 8.89C79.6581 9.07 79.5781 9.21 79.4181 9.31C79.2781 9.41 79.0781 9.46 78.8181 9.46C78.4981 9.46 78.1681 9.4 77.8281 9.28C77.4881 9.16 77.0881 9 76.6281 8.8C74.0281 9.58 72.7281 11.22 72.7281 13.72C72.7281 15.06 73.0781 16.22 73.7781 17.2C74.4781 18.18 75.4381 18.93 76.6581 19.45C77.8781 19.95 79.2481 20.2 80.7681 20.2C82.1881 20.2 83.4981 19.98 84.6981 19.54C85.9181 19.08 86.8781 18.44 87.5781 17.62C88.2981 16.78 88.6581 15.81 88.6581 14.71C88.6581 13.91 88.4481 13.1 88.0281 12.28C87.6081 11.46 86.8081 10.82 85.6281 10.36C84.0681 10.84 82.9181 11.22 82.1781 11.5C81.3381 11.82 80.6881 12.19 80.2281 12.61C79.7681 13.01 79.5381 13.51 79.5381 14.11C79.5381 14.83 79.8281 15.41 80.4081 15.85C81.0081 16.29 81.6381 16.51 82.2981 16.51C82.6381 16.51 83.0081 16.45 83.4081 16.33C83.8081 16.21 84.0381 16.05 84.0981 15.85C83.7181 15.77 83.3881 15.61 83.1081 15.37C82.8281 15.13 82.6881 14.78 82.6881 14.32C82.6881 13.84 82.8381 13.46 83.1381 13.18C83.4581 12.9 83.8581 12.76 84.3381 12.76C84.8181 12.76 85.1981 12.91 85.4781 13.21C85.7781 13.51 85.9281 13.9 85.9281 14.38C85.9281 15.18 85.5581 15.81 84.8181 16.27C84.0781 16.73 83.2581 16.96 82.3581 16.96C81.3781 16.96 80.5081 16.67 79.7481 16.09C79.0081 15.49 78.6381 14.61 78.6381 13.45C78.6381 12.43 78.9781 11.57 79.6581 10.87C80.3581 10.15 81.3981 9.55 82.7781 9.07L84.9081 8.44C86.1081 8.1 87.1081 7.8 87.9081 7.54C88.7081 7.28 89.4381 7 90.0981 6.7C91.0581 6.26 91.7281 5.81 92.1081 5.35C92.4881 4.89 92.6781 4.38 92.6781 3.82C92.6781 2.98 92.3281 2.27 91.6281 1.69C90.9481 1.09 90.1381 0.789999 89.1981 0.789999C88.6981 0.789999 88.3981 0.88 88.2981 1.06C88.5581 1.18 88.7581 1.38 88.8981 1.66C89.0581 1.92 89.1381 2.18 89.1381 2.44C89.1381 2.86 88.9681 3.21 88.6281 3.49C88.3081 3.77 87.9181 3.91 87.4581 3.91C87.0381 3.91 86.6681 3.78 86.3481 3.52C86.0281 3.26 85.8681 2.89 85.8681 2.41C85.8681 1.69 86.1981 1.17 86.8581 0.849999C87.5381 0.509998 88.3081 0.339998 89.1681 0.339998ZM112.896 0.339998C114.076 0.339998 115.046 0.509998 115.806 0.849999C116.566 1.17 117.396 1.65 118.296 2.29C118.556 2.49 118.756 2.59 118.896 2.59C119.276 2.59 119.526 1.98 119.646 0.76H120.336C120.256 2.06 120.216 4.36 120.216 7.66H119.526C119.346 6.6 119.156 5.73 118.956 5.05C118.756 4.35 118.446 3.74 118.026 3.22C117.446 2.5 116.686 1.93 115.746 1.51C114.826 1.09 113.856 0.879998 112.836 0.879998C111.516 0.879998 110.356 1.31 109.356 2.17C108.356 3.03 107.586 4.26 107.046 5.86C106.506 7.44 106.236 9.29 106.236 11.41C106.236 15.01 106.806 17.65 107.946 19.33C109.106 20.99 110.916 21.82 113.376 21.82C114.576 21.82 115.616 21.51 116.496 20.89C116.856 20.65 117.086 20.42 117.186 20.2C117.306 19.96 117.366 19.64 117.366 19.24V16.36C117.366 15.52 117.286 14.91 117.126 14.53C116.966 14.15 116.686 13.89 116.286 13.75C115.886 13.61 115.236 13.52 114.336 13.48V12.88C115.376 12.94 116.786 12.97 118.566 12.97C119.926 12.97 120.966 12.94 121.686 12.88V13.48C121.226 13.52 120.886 13.6 120.666 13.72C120.466 13.84 120.326 14.07 120.246 14.41C120.186 14.75 120.156 15.3 120.156 16.06V22H119.556C119.536 21.6 119.456 21.22 119.316 20.86C119.176 20.48 118.986 20.29 118.746 20.29C118.626 20.29 118.506 20.32 118.386 20.38C118.266 20.44 118.056 20.58 117.756 20.8C117.056 21.34 116.326 21.74 115.566 22C114.826 22.28 113.996 22.42 113.076 22.42C111.016 22.42 109.246 22 107.766 21.16C106.306 20.3 105.186 19.07 104.406 17.47C103.626 15.87 103.236 13.96 103.236 11.74C103.236 9.46 103.646 7.46 104.466 5.74C105.306 4 106.456 2.67 107.916 1.75C109.376 0.809999 111.036 0.339998 112.896 0.339998ZM132.91 6.13C133.71 6.13 134.36 6.36 134.86 6.82C135.38 7.28 135.64 7.84 135.64 8.5C135.64 9.02 135.48 9.47 135.16 9.85C134.86 10.21 134.45 10.39 133.93 10.39C133.49 10.39 133.11 10.25 132.79 9.97C132.49 9.69 132.34 9.31 132.34 8.83C132.34 8.17 132.68 7.63 133.36 7.21C133.22 7.01 133.01 6.91 132.73 6.91C131.95 6.91 131.24 7.22 130.6 7.84C129.96 8.44 129.46 9.18 129.1 10.06C128.74 10.94 128.56 11.77 128.56 12.55V18.91C128.56 19.83 128.82 20.47 129.34 20.83C129.88 21.19 130.68 21.37 131.74 21.37V22L131.02 21.97C128.98 21.91 127.68 21.88 127.12 21.88C126.6 21.88 125.42 21.92 123.58 22V21.37C124.42 21.37 125.01 21.22 125.35 20.92C125.69 20.6 125.86 20.03 125.86 19.21V9.82C125.86 8.9 125.69 8.23 125.35 7.81C125.01 7.39 124.42 7.18 123.58 7.18V6.55C124.22 6.61 124.84 6.64 125.44 6.64C126.7 6.64 127.74 6.5 128.56 6.22V9.97C128.92 8.97 129.49 8.08 130.27 7.3C131.07 6.52 131.95 6.13 132.91 6.13ZM140.959 22.21C139.699 22.21 138.759 21.9 138.139 21.28C137.539 20.64 137.239 19.76 137.239 18.64C137.239 17.74 137.479 17 137.959 16.42C138.459 15.84 139.039 15.38 139.699 15.04C140.379 14.7 141.269 14.34 142.369 13.96C143.489 13.58 144.319 13.23 144.859 12.91C145.399 12.59 145.669 12.16 145.669 11.62V9.76C145.669 8.6 145.419 7.81 144.919 7.39C144.439 6.95 143.759 6.73 142.879 6.73C141.479 6.73 140.489 7.09 139.909 7.81C140.309 7.91 140.639 8.12 140.899 8.44C141.179 8.76 141.319 9.16 141.319 9.64C141.319 10.14 141.159 10.54 140.839 10.84C140.519 11.12 140.109 11.26 139.609 11.26C139.049 11.26 138.629 11.09 138.349 10.75C138.069 10.39 137.929 9.96 137.929 9.46C137.929 8.98 138.039 8.58 138.259 8.26C138.499 7.94 138.849 7.62 139.309 7.3C139.789 6.96 140.399 6.68 141.139 6.46C141.879 6.24 142.689 6.13 143.569 6.13C145.129 6.13 146.309 6.5 147.109 7.24C147.609 7.7 147.939 8.26 148.099 8.92C148.279 9.56 148.369 10.41 148.369 11.47V19.81C148.369 20.31 148.439 20.67 148.579 20.89C148.719 21.11 148.959 21.22 149.299 21.22C149.539 21.22 149.759 21.17 149.959 21.07C150.179 20.95 150.409 20.79 150.649 20.59L150.979 21.1C150.459 21.5 150.009 21.79 149.629 21.97C149.269 22.13 148.809 22.21 148.249 22.21C147.289 22.21 146.619 21.97 146.239 21.49C145.859 21.01 145.669 20.36 145.669 19.54C145.069 20.54 144.379 21.24 143.599 21.64C142.819 22.02 141.939 22.21 140.959 22.21ZM142.279 21.01C143.599 21.01 144.729 20.25 145.669 18.73V12.85C145.489 13.13 145.239 13.36 144.919 13.54C144.599 13.72 144.109 13.96 143.449 14.26C142.689 14.58 142.069 14.89 141.589 15.19C141.129 15.47 140.729 15.86 140.389 16.36C140.049 16.86 139.879 17.5 139.879 18.28C139.879 19.18 140.099 19.86 140.539 20.32C140.979 20.78 141.559 21.01 142.279 21.01ZM159.381 6.13C160.721 6.13 161.881 6.45 162.861 7.09C163.801 7.71 164.271 8.48 164.271 9.4C164.271 9.92 164.121 10.33 163.821 10.63C163.521 10.93 163.141 11.08 162.681 11.08C162.221 11.08 161.831 10.95 161.511 10.69C161.191 10.41 161.031 10.04 161.031 9.58C161.031 9.16 161.151 8.81 161.391 8.53C161.631 8.23 161.931 8.03 162.291 7.93C162.091 7.57 161.731 7.27 161.211 7.03C160.711 6.79 160.171 6.67 159.591 6.67C158.851 6.67 158.161 6.91 157.521 7.39C156.881 7.85 156.351 8.63 155.931 9.73C155.511 10.81 155.301 12.24 155.301 14.02C155.301 16.5 155.701 18.31 156.501 19.45C157.301 20.57 158.341 21.13 159.621 21.13C160.481 21.13 161.291 20.88 162.051 20.38C162.831 19.88 163.471 19.1 163.971 18.04L164.541 18.25C164.201 19.39 163.561 20.37 162.621 21.19C161.701 22.01 160.501 22.42 159.021 22.42C157.781 22.42 156.651 22.1 155.631 21.46C154.631 20.82 153.841 19.9 153.261 18.7C152.681 17.48 152.391 16.07 152.391 14.47C152.391 12.85 152.681 11.41 153.261 10.15C153.861 8.89 154.691 7.91 155.751 7.21C156.811 6.49 158.021 6.13 159.381 6.13ZM179.491 18.4C179.131 19.5 178.451 20.45 177.451 21.25C176.471 22.03 175.281 22.42 173.881 22.42C172.461 22.42 171.231 22.1 170.191 21.46C169.151 20.8 168.351 19.89 167.791 18.73C167.251 17.55 166.981 16.19 166.981 14.65C166.981 12.91 167.261 11.4 167.821 10.12C168.381 8.84 169.171 7.86 170.191 7.18C171.211 6.48 172.401 6.13 173.761 6.13C175.561 6.13 176.941 6.68 177.901 7.78C178.881 8.86 179.371 10.51 179.371 12.73H169.981C169.921 13.29 169.891 13.93 169.891 14.65C169.891 15.97 170.101 17.12 170.521 18.1C170.961 19.08 171.531 19.84 172.231 20.38C172.951 20.9 173.701 21.16 174.481 21.16C175.441 21.16 176.291 20.93 177.031 20.47C177.771 20.01 178.391 19.24 178.891 18.16L179.491 18.4ZM173.641 6.7C172.701 6.7 171.891 7.16 171.211 8.08C170.531 9 170.111 10.36 169.951 12.16H176.491C176.531 10.6 176.301 9.3 175.801 8.26C175.321 7.22 174.601 6.7 173.641 6.7Z" fill="#27282C" fill-opacity="0.95"/>
</svg>
