<svg width="180" height="23" xmlns="http://www.w3.org/2000/svg" fill="none">

 <g>
  <title>Layer 1</title>
  <path id="svg_1" fill-opacity="0.95" fill="#ffffff" d="m8.13363,1.36c-0.72,0.04 -1.25,0.12 -1.59,0.24c-0.32,0.12 -0.54,0.35 -0.66,0.69c-0.12,0.34 -0.18,0.89 -0.18,1.65l0,14.88c0,0.76 0.06,1.31 0.18,1.65c0.12,0.34 0.34,0.57 0.66,0.69c0.34,0.1 0.87,0.15 1.59,0.15l2.18997,0c1.24,0 2.18,-0.17 2.82,-0.51c0.66,-0.36 1.14,-0.93 1.44,-1.71c0.3,-0.78 0.52,-1.91 0.66,-3.39l0.69,0c-0.06,0.62 -0.09,1.44 -0.09,2.46c0,1.14 0.07,2.42 0.21,3.84c-1.36,-0.06 -3.65,-0.09 -6.86997,-0.09c-3.84,0 -6.74,0.03 -8.7,0.09l0,-0.6c0.72,-0.04 1.24,-0.12 1.56,-0.24c0.34,-0.12 0.57,-0.35 0.69,-0.69c0.12,-0.34 0.18,-0.89 0.18,-1.65l0,-14.88c0,-0.76 -0.06,-1.31 -0.18,-1.65c-0.12,-0.34 -0.35,-0.57 -0.69,-0.69c-0.32,-0.12 -0.84,-0.2 -1.56,-0.24l0,-0.6c0.84,0.06 2.12,0.09 3.84,0.09c1.6,0 2.87,-0.03 3.81,-0.09l0,0.6zm13.61677,20.85c-1.26,0 -2.2,-0.31 -2.82,-0.93c-0.6,-0.64 -0.9,-1.52 -0.9,-2.64c0,-0.9 0.24,-1.64 0.72,-2.22c0.5,-0.58 1.08,-1.04 1.74,-1.38c0.68,-0.34 1.57,-0.7 2.67,-1.08c1.12,-0.38 1.95,-0.73 2.49,-1.05c0.54,-0.32 0.81,-0.75 0.81,-1.29l0,-1.86c0,-1.16 -0.25,-1.95 -0.75,-2.37c-0.48,-0.44 -1.16,-0.66 -2.04,-0.66c-1.4,0 -2.39,0.36 -2.97,1.08c0.4,0.1 0.73,0.31 0.99,0.63c0.28,0.32 0.42,0.72 0.42,1.2c0,0.5 -0.16,0.9 -0.48,1.2c-0.32,0.28 -0.73,0.42 -1.23,0.42c-0.56,0 -0.98,-0.17 -1.26,-0.51c-0.28,-0.36 -0.42,-0.79 -0.42,-1.29c0,-0.48 0.11,-0.88 0.33,-1.2c0.24,-0.32 0.59,-0.64 1.05,-0.96c0.48,-0.34 1.09,-0.62 1.83,-0.84c0.74,-0.22 1.55,-0.33 2.43,-0.33c1.56,0 2.74,0.37 3.54,1.11c0.5,0.46 0.83,1.02 0.99,1.68c0.18,0.64 0.27,1.49 0.27,2.55l0,8.34c0,0.5 0.07,0.86 0.21,1.08c0.14,0.22 0.38,0.33 0.72,0.33c0.24,0 0.46,-0.05 0.66,-0.15c0.22,-0.12 0.45,-0.28 0.69,-0.48l0.33,0.51c-0.52,0.4 -0.97,0.69 -1.35,0.87c-0.36,0.16 -0.82,0.24 -1.38,0.24c-0.96,0 -1.63,-0.24 -2.01,-0.72c-0.38,-0.48 -0.57,-1.13 -0.57,-1.95c-0.6,1 -1.29,1.7 -2.07,2.1c-0.78,0.38 -1.66,0.57 -2.64,0.57zm1.32,-1.2c1.32,0 2.45,-0.76 3.39,-2.28l0,-5.88c-0.18,0.28 -0.43,0.51 -0.75,0.69c-0.32,0.18 -0.81,0.42 -1.47,0.72c-0.76,0.32 -1.38,0.63 -1.86,0.93c-0.46,0.28 -0.86,0.67 -1.2,1.17c-0.34,0.5 -0.51,1.14 -0.51,1.92c0,0.9 0.22,1.58 0.66,2.04c0.44,0.46 1.02,0.69 1.74,0.69zm17.1014,-14.88c1.34,0 2.5,0.32 3.48,0.96c0.94,0.62 1.41,1.39 1.41,2.31c0,0.52 -0.15,0.93 -0.45,1.23c-0.3,0.3 -0.68,0.45 -1.14,0.45c-0.46,0 -0.85,-0.13 -1.17,-0.39c-0.32,-0.28 -0.48,-0.65 -0.48,-1.11c0,-0.42 0.12,-0.77 0.36,-1.05c0.24,-0.3 0.54,-0.5 0.9,-0.6c-0.2,-0.36 -0.56,-0.66 -1.08,-0.9c-0.5,-0.24 -1.04,-0.36 -1.62,-0.36c-0.74,0 -1.43,0.24 -2.07,0.72c-0.64,0.46 -1.17,1.24 -1.59,2.34c-0.42,1.08 -0.63,2.51 -0.63,4.29c0,2.48 0.4,4.29 1.2,5.43c0.8,1.12 1.84,1.68 3.12,1.68c0.86,0 1.67,-0.25 2.43,-0.75c0.78,-0.5 1.42,-1.28 1.92,-2.34l0.57,0.21c-0.34,1.14 -0.98,2.12 -1.92,2.94c-0.92,0.82 -2.12,1.23 -3.6,1.23c-1.24,0 -2.37,-0.32 -3.39,-0.96c-1,-0.64 -1.79,-1.56 -2.37,-2.76c-0.58,-1.22 -0.87,-2.63 -0.87,-4.23c0,-1.62 0.29,-3.06 0.87,-4.32c0.6,-1.26 1.43,-2.24 2.49,-2.94c1.06,-0.72 2.27,-1.08 3.63,-1.08zm20.1098,12.27c-0.36,1.1 -1.04,2.05 -2.04,2.85c-0.98,0.78 -2.17,1.17 -3.57,1.17c-1.42,0 -2.65,-0.32 -3.69,-0.96c-1.04,-0.66 -1.84,-1.57 -2.4,-2.73c-0.54,-1.18 -0.81,-2.54 -0.81,-4.08c0,-1.74 0.28,-3.25 0.84,-4.53c0.56,-1.28 1.35,-2.26 2.37,-2.94c1.02,-0.7 2.21,-1.05 3.57,-1.05c1.8,0 3.18,0.55 4.14,1.65c0.98,1.08 1.47,2.73 1.47,4.95l-9.39,0c-0.06,0.56 -0.09,1.2 -0.09,1.92c0,1.32 0.21,2.47 0.63,3.45c0.44,0.98 1.01,1.74 1.71,2.28c0.72,0.52 1.47,0.78 2.25,0.78c0.96,0 1.81,-0.23 2.55,-0.69c0.74,-0.46 1.36,-1.23 1.86,-2.31l0.6,0.24zm-5.85,-11.7c-0.94,0 -1.75,0.46 -2.43,1.38c-0.68,0.92 -1.1,2.28 -1.26,4.08l6.54,0c0.04,-1.56 -0.19,-2.86 -0.69,-3.9c-0.48,-1.04 -1.2,-1.56 -2.16,-1.56zm34.7365,-6.36c1.26,0 2.3,0.37 3.12,1.11c0.84,0.72 1.26,1.7 1.26,2.94c0,0.96 -0.26,1.8 -0.78,2.52c-0.52,0.7 -1.21,1.26 -2.07,1.68c-0.76,0.36 -2.24,0.88 -4.44,1.56c1.12,0.48 1.94,1.17 2.46,2.07c0.54,0.88 0.81,1.89 0.81,3.03c0,1.24 -0.37,2.41 -1.11,3.51c-0.74,1.1 -1.8,1.99 -3.18,2.67c-1.38,0.66 -3,0.99 -4.86,0.99c-1.74,0 -3.36,-0.3 -4.86,-0.9c-1.48,-0.62 -2.66,-1.49 -3.54,-2.61c-0.88,-1.14 -1.32,-2.46 -1.32,-3.96c0,-1.32 0.32,-2.43 0.96,-3.33c0.66,-0.92 1.41,-1.61 2.25,-2.07c0.84,-0.48 1.62,-0.81 2.34,-0.99c-0.98,-0.42 -1.73,-0.98 -2.25,-1.68c-0.52,-0.7 -0.78,-1.43 -0.78,-2.19c0,-0.66 0.19,-1.27 0.57,-1.83c0.4,-0.58 0.98,-1.04 1.74,-1.38c0.78,-0.36 1.7,-0.54 2.76,-0.54c1.34,0 2.38,0.3 3.12,0.9c0.36,0.3 0.63,0.64 0.81,1.02c0.2,0.36 0.3,0.71 0.3,1.05c0,0.48 -0.17,0.87 -0.51,1.17c-0.34,0.28 -0.73,0.42 -1.17,0.42c-0.42,0 -0.79,-0.13 -1.11,-0.39c-0.3,-0.28 -0.45,-0.65 -0.45,-1.11c0,-0.44 0.15,-0.81 0.45,-1.11c0.3,-0.32 0.68,-0.5 1.14,-0.54c-0.1,-0.26 -0.36,-0.48 -0.78,-0.66c-0.4,-0.2 -0.9,-0.3 -1.5,-0.3c-1.04,0 -1.88,0.32 -2.52,0.96c-0.64,0.62 -0.96,1.49 -0.96,2.61c0,1.34 0.51,2.48 1.53,3.42c0.7,-0.12 1.32,-0.18 1.86,-0.18c0.36,0 0.65,0.06 0.87,0.18c0.22,0.12 0.33,0.29 0.33,0.51c0,0.18 -0.08,0.32 -0.24,0.42c-0.14,0.1 -0.34,0.15 -0.6,0.15c-0.32,0 -0.65,-0.06 -0.99,-0.18c-0.34,-0.12 -0.74,-0.28 -1.2,-0.48c-2.6,0.78 -3.9,2.42 -3.9,4.92c0,1.34 0.35,2.5 1.05,3.48c0.7,0.98 1.66,1.73 2.88,2.25c1.22,0.5 2.59,0.75 4.11,0.75c1.42,0 2.73,-0.22 3.93,-0.66c1.22,-0.46 2.18,-1.1 2.88,-1.92c0.72,-0.84 1.08,-1.81 1.08,-2.91c0,-0.8 -0.21,-1.61 -0.63,-2.43c-0.42,-0.82 -1.22,-1.46 -2.4,-1.92c-1.56,0.48 -2.71,0.86 -3.45,1.14c-0.84,0.32 -1.49,0.69 -1.95,1.11c-0.46,0.4 -0.69,0.9 -0.69,1.5c0,0.72 0.29,1.3 0.87,1.74c0.6,0.44 1.23,0.66 1.89,0.66c0.34,0 0.71,-0.06 1.11,-0.18c0.4,-0.12 0.63,-0.28 0.69,-0.48c-0.38,-0.08 -0.71,-0.24 -0.99,-0.48c-0.28,-0.24 -0.42,-0.59 -0.42,-1.05c0,-0.48 0.15,-0.86 0.45,-1.14c0.32,-0.28 0.72,-0.42 1.2,-0.42c0.48,0 0.86,0.15 1.14,0.45c0.3,0.3 0.45,0.69 0.45,1.17c0,0.8 -0.37,1.43 -1.11,1.89c-0.74,0.46 -1.56,0.69 -2.46,0.69c-0.98,0 -1.85,-0.29 -2.61,-0.87c-0.74,-0.6 -1.11,-1.48 -1.11,-2.64c0,-1.02 0.34,-1.88 1.02,-2.58c0.7,-0.72 1.74,-1.32 3.12,-1.8l2.13,-0.63c1.2,-0.34 2.2,-0.64 3,-0.9c0.8,-0.26 1.53,-0.54 2.19,-0.84c0.96,-0.44 1.63,-0.89 2.01,-1.35c0.38,-0.46 0.57,-0.97 0.57,-1.53c0,-0.84 -0.35,-1.55 -1.05,-2.13c-0.68,-0.6 -1.49,-0.9 -2.43,-0.9c-0.5,0 -0.8,0.09 -0.9,0.27c0.26,0.12 0.46,0.32 0.6,0.6c0.16,0.26 0.24,0.52 0.24,0.78c0,0.42 -0.17,0.77 -0.51,1.05c-0.32,0.28 -0.71,0.42 -1.17,0.42c-0.42,0 -0.79,-0.13 -1.11,-0.39c-0.32,-0.26 -0.48,-0.63 -0.48,-1.11c0,-0.72 0.33,-1.24 0.99,-1.56c0.68,-0.34 1.45,-0.51 2.31,-0.51zm23.7279,0c1.18,0 2.15,0.17 2.91,0.51c0.76,0.32 1.59,0.8 2.49,1.44c0.26,0.2 0.46,0.3 0.6,0.3c0.38,0 0.63,-0.61 0.75,-1.83l0.69,0c-0.08,1.3 -0.12,3.6 -0.12,6.9l-0.69,0c-0.18,-1.06 -0.37,-1.93 -0.57,-2.61c-0.2,-0.7 -0.51,-1.31 -0.93,-1.83c-0.58,-0.72 -1.34,-1.29 -2.28,-1.71c-0.92,-0.42 -1.89,-0.63 -2.91,-0.63c-1.32,0 -2.48,0.43 -3.48,1.29c-1,0.86 -1.77,2.09 -2.31,3.69c-0.54,1.58 -0.81,3.43 -0.81,5.55c0,3.6 0.57,6.24 1.71,7.92c1.16,1.66 2.97,2.49 5.43,2.49c1.2,0 2.24,-0.31 3.12,-0.93c0.36,-0.24 0.59,-0.47 0.69,-0.69c0.12,-0.24 0.18,-0.56 0.18,-0.96l0,-2.88c0,-0.84 -0.08,-1.45 -0.24,-1.83c-0.16,-0.38 -0.44,-0.64 -0.84,-0.78c-0.4,-0.14 -1.05,-0.23 -1.95,-0.27l0,-0.6c1.04,0.06 2.45,0.09 4.23,0.09c1.36,0 2.4,-0.03 3.12,-0.09l0,0.6c-0.46,0.04 -0.8,0.12 -1.02,0.24c-0.2,0.12 -0.34,0.35 -0.42,0.69c-0.06,0.34 -0.09,0.89 -0.09,1.65l0,5.94l-0.6,0c-0.02,-0.4 -0.1,-0.78 -0.24,-1.14c-0.14,-0.38 -0.33,-0.57 -0.57,-0.57c-0.12,0 -0.24,0.03 -0.36,0.09c-0.12,0.06 -0.33,0.2 -0.63,0.42c-0.7,0.54 -1.43,0.94 -2.19,1.2c-0.74,0.28 -1.57,0.42 -2.49,0.42c-2.06,0 -3.83,-0.42 -5.31,-1.26c-1.46,-0.86 -2.58,-2.09 -3.36,-3.69c-0.78,-1.6 -1.17,-3.51 -1.17,-5.73c0,-2.28 0.41,-4.28 1.23,-6c0.84,-1.74 1.99,-3.07 3.45,-3.99c1.46,-0.94 3.12,-1.41 4.98,-1.41zm20.014,5.79c0.8,0 1.45,0.23 1.95,0.69c0.52,0.46 0.78,1.02 0.78,1.68c0,0.52 -0.16,0.97 -0.48,1.35c-0.3,0.36 -0.71,0.54 -1.23,0.54c-0.44,0 -0.82,-0.14 -1.14,-0.42c-0.3,-0.28 -0.45,-0.66 -0.45,-1.14c0,-0.66 0.34,-1.2 1.02,-1.62c-0.14,-0.2 -0.35,-0.3 -0.63,-0.3c-0.78,0 -1.49,0.31 -2.13,0.93c-0.64,0.6 -1.14,1.34 -1.5,2.22c-0.36,0.88 -0.54,1.71 -0.54,2.49l0,6.36c0,0.92 0.26,1.56 0.78,1.92c0.54,0.36 1.34,0.54 2.4,0.54l0,0.63l-0.72,-0.03c-2.04,-0.06 -3.34,-0.09 -3.9,-0.09c-0.52,0 -1.7,0.04 -3.54,0.12l0,-0.63c0.84,0 1.43,-0.15 1.77,-0.45c0.34,-0.32 0.51,-0.89 0.51,-1.71l0,-9.39c0,-0.92 -0.17,-1.59 -0.51,-2.01c-0.34,-0.42 -0.93,-0.63 -1.77,-0.63l0,-0.63c0.64,0.06 1.26,0.09 1.86,0.09c1.26,0 2.3,-0.14 3.12,-0.42l0,3.75c0.36,-1 0.93,-1.89 1.71,-2.67c0.8,-0.78 1.68,-1.17 2.64,-1.17zm8.049,16.08c-1.26,0 -2.2,-0.31 -2.82,-0.93c-0.6,-0.64 -0.9,-1.52 -0.9,-2.64c0,-0.9 0.24,-1.64 0.72,-2.22c0.5,-0.58 1.08,-1.04 1.74,-1.38c0.68,-0.34 1.57,-0.7 2.67,-1.08c1.12,-0.38 1.95,-0.73 2.49,-1.05c0.54,-0.32 0.81,-0.75 0.81,-1.29l0,-1.86c0,-1.16 -0.25,-1.95 -0.75,-2.37c-0.48,-0.44 -1.16,-0.66 -2.04,-0.66c-1.4,0 -2.39,0.36 -2.97,1.08c0.4,0.1 0.73,0.31 0.99,0.63c0.28,0.32 0.42,0.72 0.42,1.2c0,0.5 -0.16,0.9 -0.48,1.2c-0.32,0.28 -0.73,0.42 -1.23,0.42c-0.56,0 -0.98,-0.17 -1.26,-0.51c-0.28,-0.36 -0.42,-0.79 -0.42,-1.29c0,-0.48 0.11,-0.88 0.33,-1.2c0.24,-0.32 0.59,-0.64 1.05,-0.96c0.48,-0.34 1.09,-0.62 1.83,-0.84c0.74,-0.22 1.55,-0.33 2.43,-0.33c1.56,0 2.74,0.37 3.54,1.11c0.5,0.46 0.83,1.02 0.99,1.68c0.18,0.64 0.27,1.49 0.27,2.55l0,8.34c0,0.5 0.07,0.86 0.21,1.08c0.14,0.22 0.38,0.33 0.72,0.33c0.24,0 0.46,-0.05 0.66,-0.15c0.22,-0.12 0.45,-0.28 0.69,-0.48l0.33,0.51c-0.52,0.4 -0.97,0.69 -1.35,0.87c-0.36,0.16 -0.82,0.24 -1.38,0.24c-0.96,0 -1.63,-0.24 -2.01,-0.72c-0.38,-0.48 -0.57,-1.13 -0.57,-1.95c-0.6,1 -1.29,1.7 -2.07,2.1c-0.78,0.38 -1.66,0.57 -2.64,0.57zm1.32,-1.2c1.32,0 2.45,-0.76 3.39,-2.28l0,-5.88c-0.18,0.28 -0.43,0.51 -0.75,0.69c-0.32,0.18 -0.81,0.42 -1.47,0.72c-0.76,0.32 -1.38,0.63 -1.86,0.93c-0.46,0.28 -0.86,0.67 -1.2,1.17c-0.34,0.5 -0.51,1.14 -0.51,1.92c0,0.9 0.22,1.58 0.66,2.04c0.44,0.46 1.02,0.69 1.74,0.69zm17.102,-14.88c1.34,0 2.5,0.32 3.48,0.96c0.94,0.62 1.41,1.39 1.41,2.31c0,0.52 -0.15,0.93 -0.45,1.23c-0.3,0.3 -0.68,0.45 -1.14,0.45c-0.46,0 -0.85,-0.13 -1.17,-0.39c-0.32,-0.28 -0.48,-0.65 -0.48,-1.11c0,-0.42 0.12,-0.77 0.36,-1.05c0.24,-0.3 0.54,-0.5 0.9,-0.6c-0.2,-0.36 -0.56,-0.66 -1.08,-0.9c-0.5,-0.24 -1.04,-0.36 -1.62,-0.36c-0.74,0 -1.43,0.24 -2.07,0.72c-0.64,0.46 -1.17,1.24 -1.59,2.34c-0.42,1.08 -0.63,2.51 -0.63,4.29c0,2.48 0.4,4.29 1.2,5.43c0.8,1.12 1.84,1.68 3.12,1.68c0.86,0 1.67,-0.25 2.43,-0.75c0.78,-0.5 1.42,-1.28 1.92,-2.34l0.57,0.21c-0.34,1.14 -0.98,2.12 -1.92,2.94c-0.92,0.82 -2.12,1.23 -3.6,1.23c-1.24,0 -2.37,-0.32 -3.39,-0.96c-1,-0.64 -1.79,-1.56 -2.37,-2.76c-0.58,-1.22 -0.87,-2.63 -0.87,-4.23c0,-1.62 0.29,-3.06 0.87,-4.32c0.6,-1.26 1.43,-2.24 2.49,-2.94c1.06,-0.72 2.27,-1.08 3.63,-1.08zm20.11,12.27c-0.36,1.1 -1.04,2.05 -2.04,2.85c-0.98,0.78 -2.17,1.17 -3.57,1.17c-1.42,0 -2.65,-0.32 -3.69,-0.96c-1.04,-0.66 -1.84,-1.57 -2.4,-2.73c-0.54,-1.18 -0.81,-2.54 -0.81,-4.08c0,-1.74 0.28,-3.25 0.84,-4.53c0.56,-1.28 1.35,-2.26 2.37,-2.94c1.02,-0.7 2.21,-1.05 3.57,-1.05c1.8,0 3.18,0.55 4.14,1.65c0.98,1.08 1.47,2.73 1.47,4.95l-9.39,0c-0.06,0.56 -0.09,1.2 -0.09,1.92c0,1.32 0.21,2.47 0.63,3.45c0.44,0.98 1.01,1.74 1.71,2.28c0.72,0.52 1.47,0.78 2.25,0.78c0.96,0 1.81,-0.23 2.55,-0.69c0.74,-0.46 1.36,-1.23 1.86,-2.31l0.6,0.24zm-5.85,-11.7c-0.94,0 -1.75,0.46 -2.43,1.38c-0.68,0.92 -1.1,2.28 -1.26,4.08l6.54,0c0.04,-1.56 -0.19,-2.86 -0.69,-3.9c-0.48,-1.04 -1.2,-1.56 -2.16,-1.56z"/>
 </g>
</svg>