<svg width="40" height="35" xmlns="http://www.w3.org/2000/svg" fill="none">

 <g>
  <title>Layer 1</title>
  <path id="svg_1" fill-opacity="0.95" fill="#75797c" d="m18,0l0,3.88889l-6,0l8,7.77781l8,-7.77781l-6,0l0,-3.88889l-4,0zm-14,3.88889c-2.21,0 -4,1.74028 -4,3.88889l0,23.33332c0,2.1486 1.79,3.8889 4,3.8889l32,0c2.21,0 4,-1.7403 4,-3.8889l0,-23.33332c0,-2.14861 -1.79,-3.88889 -4,-3.88889l-2.3438,0l-2.8281,2.74956l-1.1719,1.13933l6.3438,0l0,3.89272l-16,9.7184l-16,-9.7184l0,-3.89272l6.3438,0l-1.17192,-1.13933l-2.82813,-2.74956l-2.34375,0zm0,11.67051l16,9.7184l16,-9.7184l0,15.5517l-32,0l0,-15.5517z"/>
 </g>
</svg>