<svg width="40" height="35" viewBox="0 0 40 35" fill="none" xmlns="http://www.w3.org/2000/svg">
<path d="M18 0V3.88889H12L20 11.6667L28 3.88889H22V0H18ZM4 3.88889C1.79 3.88889 0 5.62917 0 7.77778V31.1111C0 33.2597 1.79 35 4 35H36C38.21 35 40 33.2597 40 31.1111V7.77778C40 5.62917 38.21 3.88889 36 3.88889H33.6562L30.8281 6.63845L29.6562 7.77778H36V11.6705L20 21.3889L4 11.6705V7.77778H10.3438L9.17188 6.63845L6.34375 3.88889H4ZM4 15.5594L20 25.2778L36 15.5594V31.1111H4V15.5594Z" fill="#27282C" fill-opacity="0.95"/>
</svg>
