<svg width="450" height="340" xmlns="http://www.w3.org/2000/svg" xml:space="preserve" version="1.1">

 <g>
  <title>Layer 1</title>
  <g id="_x32_06-mastercard_x2C__Credit_card">
   <path id="svg_1" fill="#FFFFFF" d="m403.5,340l-357,0c-25.681,0 -46.5,-20.818 -46.5,-46.5l0,-247c0,-25.681 20.819,-46.5 46.5,-46.5l357,0c25.682,0 46.5,20.819 46.5,46.5l0,247c0,25.682 -20.818,46.5 -46.5,46.5z"/>
   <g id="svg_2">
    <g id="svg_3">
     <path id="svg_4" fill="#F79F1A" d="m300,75c52.46,0 95,42.53 95,95c0,52.47 -42.54,95 -95,95c-30.49,0 -57.631,-14.36 -75,-36.69c12.54,-16.1 20,-36.329 20,-58.31c0,-21.98 -7.46,-42.21 -20,-58.31c17.369,-22.33 44.51,-36.69 75,-36.69z"/>
    </g>
    <g id="svg_5">
     <path id="svg_6" fill="#FF5F01" d="m225,111.69c12.54,16.1 20,36.33 20,58.31c0,21.98 -7.46,42.21 -20,58.31c-12.54,-16.1 -20,-36.329 -20,-58.31c0,-21.98 7.46,-42.21 20,-58.31z"/>
    </g>
    <g id="svg_7">
     <path id="svg_8" fill="#EA001B" d="m150,75c30.49,0 57.63,14.36 75,36.69c-12.54,16.1 -20,36.33 -20,58.31c0,21.98 7.46,42.21 20,58.31c-17.37,22.33 -44.51,36.69 -75,36.69c-52.47,0 -95,-42.53 -95,-95c0,-52.47 42.53,-95 95,-95z"/>
    </g>
   </g>
   <polygon id="svg_9" points="224.67999267578125,168.48199462890625 224.67999267578125,172.156005859375 225.32101440429688,172.156005859375 225.32101440429688,168.48199462890625 226.83599853515625,168.48199462890625 226.83599853515625,167.843994140625 223.16400146484375,167.843994140625 223.16400146484375,168.48199462890625 224.67999267578125,168.48199462890625 "/>
   <g id="svg_10">
    <path id="svg_11" d="m373.94,164.36c-6.549,-8.704 -23.879,-4.073 -23.879,11.101c0,15.494 17.969,19.646 23.879,11.101l0,3.674l6.309,0l0,-41.287l-6.309,0l0,15.411zm-8.466,20.444c-5.43,0 -8.944,-4.152 -8.944,-9.343c0,-5.192 3.515,-9.343 8.944,-9.343c5.272,0 8.945,4.15 8.945,9.343c0,5.432 -3.673,9.343 -8.945,9.343z"/>
    <path id="svg_12" d="m134.677,164.36c-2.156,-2.636 -5.19,-4.313 -9.344,-4.313c-8.226,0 -14.534,6.549 -14.534,15.413c0,8.945 6.309,15.414 14.534,15.414c4.154,0 7.188,-1.518 9.344,-4.313l0,3.674l6.31,0l0,-29.39l-6.31,0l0,3.515zm-8.465,20.444c-5.671,0 -8.944,-4.152 -8.944,-9.343c0,-5.192 3.273,-9.343 8.944,-9.343c5.19,0 8.625,4.15 8.704,9.343c0,5.432 -3.513,9.343 -8.704,9.343z"/>
    <path id="svg_13" d="m220.287,159.967c-8.463,0 -14.534,6.311 -14.534,15.414c0,16.372 18.049,19.088 26.993,11.341l-3.034,-4.792c-6.229,5.112 -15.654,4.632 -17.489,-3.913l21.961,0c0,-12.938 -5.91,-18.05 -13.897,-18.05zm-7.825,12.859c0.639,-4.153 3.273,-6.947 7.586,-6.947c4.151,0 6.949,2.395 7.667,6.947l-15.253,0z"/>
    <path id="svg_14" d="m314.604,164.36c-6.629,-8.785 -23.88,-3.834 -23.88,11.101c0,15.333 17.891,19.725 23.88,11.101l0,3.674l6.549,0l0,-29.39l-6.549,0l0,3.514zm-8.466,20.444c-5.43,0 -8.704,-4.152 -8.704,-9.343c0,-5.192 3.274,-9.343 8.704,-9.343s8.944,4.15 8.944,9.343c0,5.432 -3.515,9.343 -8.944,9.343z"/>
    <path id="svg_15" d="m93.39,160.048c-3.674,0 -7.586,1.118 -10.223,5.189c-1.917,-3.272 -5.19,-5.189 -9.743,-5.189c-3.035,0 -6.069,1.118 -8.464,4.313l0,-3.515l-6.55,0l0,29.31l6.549,0c0,-15.094 -1.997,-24.117 7.187,-24.117c8.146,0 6.549,8.145 6.549,24.117l6.309,0c0,-14.613 -1.997,-24.117 7.187,-24.117c8.146,0 6.549,7.985 6.549,24.117l6.548,0l0,-18.368l-0.16,0c0,-6.951 -4.55,-11.501 -11.738,-11.74z"/>
    <path id="svg_16" d="m155.042,169.151c0,-4.553 9.503,-3.833 14.773,-0.878l2.636,-5.191c-7.507,-4.871 -24.118,-4.791 -24.118,6.55c0,11.419 18.288,6.628 18.288,11.979c0,5.031 -10.781,4.631 -16.53,0.639l-2.796,5.032c8.944,6.067 26.033,4.792 26.033,-5.991c0.001,-11.978 -18.286,-6.55 -18.286,-12.14z"/>
    <path id="svg_17" d="m190.102,180.012l0,-13.256l10.461,0l0,-5.91l-10.461,0l0,-8.942l-6.549,0l0,8.942l-6.07,0l0,5.829l6.07,0l0,13.337c0,14.058 13.815,11.5 18.047,8.706l-1.757,-5.431c-3.033,1.676 -9.741,3.513 -9.741,-3.275z"/>
    <path id="svg_18" d="m247.282,164.36l0,-3.515l-6.551,0l0,29.31l6.551,0l0,-16.531c0,-9.264 7.587,-8.066 10.222,-6.708l1.915,-6.07c-3.672,-1.596 -9.262,-1.438 -12.137,3.514z"/>
    <path id="svg_19" d="m284.416,168.753l3.033,-5.191c-9.262,-7.267 -26.111,-3.274 -26.111,11.98c0,15.812 17.887,19.006 26.111,11.978l-3.033,-5.19c-7.348,5.19 -16.532,2.077 -16.532,-6.868c0,-9.105 9.264,-12.062 16.532,-6.709z"/>
    <path id="svg_20" d="m335.926,164.36l0,-3.515l-6.309,0l0,29.31l6.309,0l0,-16.531c0,-8.787 7.188,-8.226 10.223,-6.708l1.917,-6.07c-1.918,-0.958 -8.786,-2.316 -12.14,3.514z"/>
    <path id="svg_21" d="m391.351,186.562c-0.24,-0.239 -0.4,-0.64 -0.64,-0.879s-0.64,-0.397 -0.878,-0.639c-0.399,0 -0.879,-0.24 -1.279,-0.24c-0.238,0 -0.639,0.24 -1.116,0.24c-0.401,0.241 -0.641,0.399 -0.879,0.639c-0.399,0.239 -0.639,0.64 -0.639,0.879c-0.24,0.399 -0.24,0.88 -0.24,1.278c0,0.239 0,0.639 0.24,1.116c0,0.24 0.239,0.641 0.639,0.88c0.238,0.239 0.4,0.399 0.879,0.639c0.398,0.239 0.878,0.239 1.116,0.239c0.4,0 0.88,0 1.279,-0.239c0.238,-0.239 0.639,-0.399 0.878,-0.639s0.399,-0.64 0.64,-0.88c0.239,-0.478 0.239,-0.877 0.239,-1.116c0,-0.399 0,-0.879 -0.239,-1.278z"/>
   </g>
   <polygon id="svg_22" points="227.39599609375,167.843994140625 226.27899169921875,167.843994140625 224.99899291992188,170.63900756835938 223.7220001220703,167.843994140625 222.60400390625,167.843994140625 222.60400390625,172.156005859375 223.24400329589844,172.156005859375 223.24400329589844,168.88099670410156 224.52099609375,171.67800903320312 225.39801025390625,171.67800903320312 226.51800537109375,168.88099670410156 226.51800537109375,172.156005859375 227.39599609375,172.156005859375 "/>
  </g>
  <g id="Layer_1"/>
 </g>
</svg>