<svg width="32" height="32" xmlns="http://www.w3.org/2000/svg" fill="none">
 <g>
  <title>Layer 1</title>
  <path d="m16,3.8c2.32,0 4.2,1.88 4.2,4.2c0,2.32 -1.88,4.2 -4.2,4.2c-2.32,0 -4.2,-1.88 -4.2,-4.2c0,-2.32 1.88,-4.2 4.2,-4.2zm0,18c5.94,0 12.2,2.92 12.2,4.2l0,2.2l-24.4,0l0,-2.2c0,-1.28 6.26,-4.2 12.2,-4.2zm0,-21.8c-4.42,0 -8,3.58 -8,8c0,4.42 3.58,8 8,8c4.42,0 8,-3.58 8,-8c0,-4.42 -3.58,-8 -8,-8zm0,18c-5.34,0 -16,2.68 -16,8l0,6l32,0l0,-6c0,-5.32 -10.66,-8 -16,-8z" fill="#27282c" id="svg_1"/>
 </g>

</svg>