<svg width="35" height="35" xmlns="http://www.w3.org/2000/svg" fill="none">

 <g>
  <title>Layer 1</title>
  <path id="svg_1" fill-opacity="0.95" fill="#75797c" d="m7.03889,15.1472c2.8,5.5028 7.31111,9.9945 12.81391,12.8139l4.2778,-4.2778c0.525,-0.525 1.3027,-0.7 1.9833,-0.4666c2.1778,0.7194 4.5305,1.1083 6.9417,1.1083c1.0694,0 1.9444,0.875 1.9444,1.9444l0,6.7862c0,1.0694 -0.875,1.9444 -1.9444,1.9444c-18.2584,0 -33.0556,-14.7972 -33.0556,-33.05556c0,-1.06944 0.875,-1.94444 1.94444,-1.94444l6.80556,0c1.06944,0 1.9444,0.875 1.9444,1.94444c0,2.43056 0.3889,4.76389 1.1084,6.94167c0.2139,0.68056 0.0583,1.43889 -0.4861,1.98329l-4.27781,4.2778z"/>
 </g>
</svg>