<svg width="28" height="31.000000000000004" xmlns="http://www.w3.org/2000/svg" fill="none">
 <g>
  <title>Layer 1</title>
  <path d="m7.77778,0c-4.28867,0 -7.77778,3.86294 -7.77778,8.61111l0,13.77779c0,4.7482 3.48911,8.6111 7.77778,8.6111l12.44442,0c4.2887,0 7.7778,-3.8629 7.7778,-8.6111l0,-13.77779c0,-4.74817 -3.4891,-8.61111 -7.7778,-8.61111l-12.44442,0zm0,3.44444l12.44442,0c2.5729,0 4.6667,2.31812 4.6667,5.16667l0,13.77779c0,2.8485 -2.0938,5.1667 -4.6667,5.1667l-12.44442,0c-2.57289,0 -4.66667,-2.3182 -4.66667,-5.1667l0,-13.77779c0,-2.84855 2.09378,-5.16667 4.66667,-5.16667zm14.00002,1.72223c-0.4126,0 -0.8082,0.18144 -1.1,0.50442c-0.2917,0.32298 -0.4556,0.76104 -0.4556,1.2178c0,0.45676 0.1639,0.89481 0.4556,1.21779c0.2918,0.32298 0.6874,0.50443 1.1,0.50443c0.4125,0 0.8082,-0.18145 1.0999,-0.50443c0.2917,-0.32298 0.4556,-0.76103 0.4556,-1.21779c0,-0.45676 -0.1639,-0.89482 -0.4556,-1.2178c-0.2917,-0.32298 -0.6874,-0.50442 -1.0999,-0.50442zm-7.7778,1.72222c-4.28867,0 -7.77778,3.86291 -7.77778,8.61111c0,4.7482 3.48911,8.6111 7.77778,8.6111c4.2887,0 7.7778,-3.8629 7.7778,-8.6111c0,-4.7482 -3.4891,-8.61111 -7.7778,-8.61111zm0,3.44441c2.5729,0 4.6667,2.3181 4.6667,5.1667c0,2.8486 -2.0938,5.1667 -4.6667,5.1667c-2.5729,0 -4.66667,-2.3181 -4.66667,-5.1667c0,-2.8486 2.09377,-5.1667 4.66667,-5.1667z" fill="#27282c" id="svg_1"/>
 </g>

</svg>