<svg width="27.999999999999996" height="31" xmlns="http://www.w3.org/2000/svg" fill="none">

 <g>
  <title>Layer 1</title>
  <path id="svg_1" fill="#aaaaaa" d="m14,0c-7.7322,0 -14,6.97527 -14,15.5802c0,7.8104 5.1702,14.2606 11.907,15.3871l0,-11.2583l-3.4636,0l0,-4.096l3.4636,0l0,-2.725c0,-4.51206 1.9754,-6.49231 5.3452,-6.49231c1.6142,0 2.4668,0.13243 2.8714,0.19319l0,3.57412l-2.2988,0c-1.4308,0 -1.9306,1.5097 -1.9306,3.2111l0,2.2389l4.193,0l-0.5684,4.096l-3.6232,0l0,11.291c6.8334,-1.0299 12.1044,-7.533 12.1044,-15.4198c0,-8.60493 -6.2678,-15.5802 -14,-15.5802z"/>
 </g>
</svg>