<svg width="37" height="41" xmlns="http://www.w3.org/2000/svg" fill="none">

 <g>
  <title>Layer 1</title>
  <path id="svg_1" fill="#aaaaaa" d="m33.2729,10.3187c-0.3546,-1.43452 -1.3998,-2.56545 -2.7257,-2.9491c-2.405,-0.69724 -12.0465,-0.69724 -12.0465,-0.69724c0,0 -9.64163,0 -12.04663,0.69724c-1.32584,0.38365 -2.37109,1.51458 -2.72567,2.9491c-0.64442,2.6021 -0.64442,9.698 -0.64442,9.698c0,0 0,7.0958 0.64442,9.6979c0.35458,1.4346 1.39983,2.5655 2.72567,2.9491c2.405,0.6973 12.04663,0.6973 12.04663,0.6973c0,0 9.6415,0 12.0465,-0.6973c1.3274,-0.3836 2.3711,-1.5145 2.7257,-2.9491c0.6444,-2.6021 0.6444,-9.6979 0.6444,-9.6979c0,0 0,-7.0959 -0.6444,-9.698zm-17.8556,15.4761l0,-11.5562l9.25,5.7781l-9.25,5.7781z"/>
 </g>
</svg>