<svg width="34" height="30" xmlns="http://www.w3.org/2000/svg" fill="none">
 <g>
  <title>Layer 1</title>
  <path d="m33.6485,7.00233c-0.1432,3.35395 -2.4154,7.93555 -6.7969,13.75855c-4.5312,6.0837 -8.3659,9.1221 -11.5039,9.1221c-1.9401,0 -3.5872,-1.8518 -4.9284,-5.5556c-0.89842,-3.395 -1.79034,-6.7901 -2.68878,-10.1851c-0.9961,-3.7037 -2.07031,-5.55559 -3.20964,-5.55559c-0.2539,0 -1.1263,0.54184 -2.61719,1.61869l-1.56901,-2.08508c1.64714,-1.48834 3.26823,-2.98354 4.86329,-4.47188c2.19401,-1.96159 3.84114,-2.9904 4.94143,-3.09328c2.5911,-0.26063 4.1927,1.57064 4.7916,5.49382c0.6446,4.22502 1.0938,6.85872 1.3412,7.88752c0.7487,3.5048 1.5755,5.2538 2.4739,5.2538c0.6967,0 1.7448,-1.1317 3.1446,-3.4088c1.3932,-2.2771 2.1419,-4.0055 2.2396,-5.1989c0.2018,-1.9616 -0.5469,-2.94925 -2.2396,-2.94925c-0.8008,0 -1.6211,0.19204 -2.4675,0.56927c1.6341,-5.54184 4.7657,-8.23045 9.388,-8.07956c3.4245,0.10288 5.0391,2.39369 4.8373,6.87929z" fill="#75797c" id="svg_1"/>
 </g>

</svg>