<svg width="29" height="31" xmlns="http://www.w3.org/2000/svg" fill="none">

 <g>
  <title>Layer 1</title>
  <path id="svg_1" fill="#75797c" d="m14.5,0c-8.00835,0 -14.5,6.93935 -14.5,15.5c0,8.5606 6.49165,15.5 14.5,15.5c8.0084,0 14.5,-6.9394 14.5,-15.5c0,-8.56065 -6.4916,-15.5 -14.5,-15.5zm0,3.1c6.4061,0 11.6,5.5521 11.6,12.4c0,6.8479 -5.1939,12.4 -11.6,12.4c-1.0666,0 -2.0945,-0.1659 -3.0756,-0.4541c0.3086,-0.6646 0.5854,-1.3649 0.7363,-1.9859c0.1668,-0.682 0.8497,-3.4633 0.8497,-3.4633c0.4437,0.9052 1.7405,1.6741 3.1209,1.6741c4.1078,0 7.0687,-4.0389 7.0687,-9.0578c0,-4.81276 -3.6728,-8.413 -8.3998,-8.413c-5.87975,0 -9.0002,4.2184 -9.0002,8.8126c0,2.1359 1.06321,4.7951 2.76406,5.643c0.2581,0.1286 0.39651,0.0728 0.45596,-0.1938c0.0464,-0.203 0.27654,-1.1926 0.37949,-1.6529c0.03335,-0.1457 0.01819,-0.2736 -0.09345,-0.4178c-0.56261,-0.73 -1.01387,-2.0701 -1.01387,-3.321c0,-3.2131 2.27531,-6.32108 6.15121,-6.32108c3.3466,0 5.6895,2.43858 5.6895,5.92448c0,3.9386 -1.8605,6.6662 -4.282,6.6662c-1.3369,0 -2.3412,-1.1799 -2.0193,-2.6307c0.3843,-1.7314 1.13,-3.6005 1.13,-4.8498c0,-1.1176 -0.559,-2.0495 -1.7219,-2.0495c-1.3673,0 -2.4667,1.5101 -2.4667,3.5359c0,1.2896 0.4079,2.1615 0.4079,2.1615c0,0 -1.34936,6.1023 -1.59731,7.2384c-0.12288,0.5607 -0.1639,1.225 -0.16709,1.8891c-3.85463,-2.0158 -6.5165,-6.2387 -6.5165,-11.1346c0,-6.8479 5.1939,-12.4 11.6,-12.4z"/>
 </g>
</svg>