<svg width="24" height="26" viewBox="0 0 24 26" fill="none" xmlns="http://www.w3.org/2000/svg">
<path d="M6.63975 0C2.97967 0 0.00195312 3.21932 0.00195312 7.17638V18.6586C0.00195312 22.6156 2.97967 25.835 6.63975 25.835H17.2602C20.9203 25.835 23.898 22.6156 23.898 18.6586V7.17638C23.898 3.21932 20.9203 0 17.2602 0H6.63975ZM6.63975 2.87055H17.2602C19.456 2.87055 21.2429 4.80243 21.2429 7.17638V18.6586C21.2429 21.0325 19.456 22.9644 17.2602 22.9644H6.63975C4.44396 22.9644 2.65707 21.0325 2.65707 18.6586V7.17638C2.65707 4.80243 4.44396 2.87055 6.63975 2.87055ZM18.5878 4.30583C18.2357 4.30583 17.898 4.45704 17.649 4.72621C17.4001 4.99538 17.2602 5.36044 17.2602 5.7411C17.2602 6.12176 17.4001 6.48683 17.649 6.756C17.898 7.02516 18.2357 7.17638 18.5878 7.17638C18.9399 7.17638 19.2775 7.02516 19.5265 6.756C19.7755 6.48683 19.9153 6.12176 19.9153 5.7411C19.9153 5.36044 19.7755 4.99538 19.5265 4.72621C19.2775 4.45704 18.9399 4.30583 18.5878 4.30583ZM11.95 5.7411C8.2899 5.7411 5.31219 8.96043 5.31219 12.9175C5.31219 16.8745 8.2899 20.0939 11.95 20.0939C15.6101 20.0939 18.5878 16.8745 18.5878 12.9175C18.5878 8.96043 15.6101 5.7411 11.95 5.7411ZM11.95 8.61165C14.1458 8.61165 15.9327 10.5435 15.9327 12.9175C15.9327 15.2914 14.1458 17.2233 11.95 17.2233C9.7542 17.2233 7.96731 15.2914 7.96731 12.9175C7.96731 10.5435 9.7542 8.61165 11.95 8.61165Z" fill="white"/>
<path d="M6.63975 0C2.97967 0 0.00195312 3.21932 0.00195312 7.17638V18.6586C0.00195312 22.6156 2.97967 25.835 6.63975 25.835H17.2602C20.9203 25.835 23.898 22.6156 23.898 18.6586V7.17638C23.898 3.21932 20.9203 0 17.2602 0H6.63975ZM6.63975 2.87055H17.2602C19.456 2.87055 21.2429 4.80243 21.2429 7.17638V18.6586C21.2429 21.0325 19.456 22.9644 17.2602 22.9644H6.63975C4.44396 22.9644 2.65707 21.0325 2.65707 18.6586V7.17638C2.65707 4.80243 4.44396 2.87055 6.63975 2.87055ZM18.5878 4.30583C18.2357 4.30583 17.898 4.45704 17.649 4.72621C17.4001 4.99538 17.2602 5.36044 17.2602 5.7411C17.2602 6.12176 17.4001 6.48683 17.649 6.756C17.898 7.02516 18.2357 7.17638 18.5878 7.17638C18.9399 7.17638 19.2775 7.02516 19.5265 6.756C19.7755 6.48683 19.9153 6.12176 19.9153 5.7411C19.9153 5.36044 19.7755 4.99538 19.5265 4.72621C19.2775 4.45704 18.9399 4.30583 18.5878 4.30583ZM11.95 5.7411C8.2899 5.7411 5.31219 8.96043 5.31219 12.9175C5.31219 16.8745 8.2899 20.0939 11.95 20.0939C15.6101 20.0939 18.5878 16.8745 18.5878 12.9175C18.5878 8.96043 15.6101 5.7411 11.95 5.7411ZM11.95 8.61165C14.1458 8.61165 15.9327 10.5435 15.9327 12.9175C15.9327 15.2914 14.1458 17.2233 11.95 17.2233C9.7542 17.2233 7.96731 15.2914 7.96731 12.9175C7.96731 10.5435 9.7542 8.61165 11.95 8.61165Z" fill="#383E43" fill-opacity="0.7"/>
</svg>
