<svg width="28" height="31" xmlns="http://www.w3.org/2000/svg" fill="none">
 <g>
  <title>Layer 1</title>
  <path stroke="null" d="m7.79242,-0.06247c-4.28867,0 -7.77778,3.92333 -7.77778,8.74573l0,13.99319c0,4.82243 3.48911,8.74572 7.77778,8.74572l12.44442,0c4.2887,0 7.7778,-3.92329 7.7778,-8.74572l0,-13.99319c0,-4.8224 -3.4891,-8.74573 -7.7778,-8.74573l-12.44442,0zm0,3.49829l12.44442,0c2.5729,0 4.6667,2.35436 4.6667,5.24744l0,13.99319c0,2.89303 -2.0938,5.24747 -4.6667,5.24747l-12.44442,0c-2.57289,0 -4.66667,-2.35444 -4.66667,-5.24747l0,-13.99319c0,-2.89308 2.09378,-5.24744 4.66667,-5.24744zm14.00002,1.74915c-0.4126,0 -0.8082,0.18428 -1.1,0.51231c-0.2917,0.32803 -0.4556,0.77294 -0.4556,1.23684c0,0.4639 0.1639,0.9088 0.4556,1.23683c0.2918,0.32803 0.6874,0.51232 1.1,0.51232c0.4125,0 0.8082,-0.18429 1.0999,-0.51232c0.2917,-0.32803 0.4556,-0.77293 0.4556,-1.23683c0,-0.4639 -0.1639,-0.90881 -0.4556,-1.23684c-0.2917,-0.32803 -0.6874,-0.51231 -1.0999,-0.51231zm-7.7778,1.74914c-4.28867,0 -7.77778,3.9233 -7.77778,8.74573c0,4.82243 3.48911,8.74572 7.77778,8.74572c4.2887,0 7.7778,-3.92329 7.7778,-8.74572c0,-4.82243 -3.4891,-8.74573 -7.7778,-8.74573zm0,3.49826c2.5729,0 4.6667,2.35434 4.6667,5.24747c0,2.89313 -2.0938,5.24747 -4.6667,5.24747c-2.5729,0 -4.66667,-2.35434 -4.66667,-5.24747c0,-2.89313 2.09377,-5.24747 4.66667,-5.24747z" fill="#aaaaaa" id="svg_1"/>
 </g>

</svg>