<svg width="35" height="35" viewBox="0 0 35 35" fill="none" xmlns="http://www.w3.org/2000/svg">
<path d="M32.5022 0.0207215C31.9204 -0.0478244 31.288 0.0531106 30.6526 0.332155C29.865 0.676342 17.5225 6.44421 6.01703 11.8248L2.21536 13.6023C0.743267 14.2653 0 15.3438 0 16.7963C0 17.8133 0.387442 19.1928 2.23587 20.0056L8.65289 22.8617C9.20777 24.711 10.4966 29.0047 10.8204 30.1462C11.0129 30.8229 11.4993 32.5277 12.7281 32.9263C12.9801 33.0216 13.2431 33.0706 13.511 33.0706C14.2864 33.0706 14.8447 32.6697 15.1178 32.4364L19.1964 28.6042L24.1502 33.6935C24.341 33.9093 25.3508 35 26.7074 35C28.4 35 29.684 33.4347 29.9518 31.9198C30.0971 31.0895 34.8748 4.44526 34.8748 4.44915C35.3037 2.31208 34.5326 1.20347 34.0372 0.730941C33.6128 0.327445 33.084 0.0892673 32.5022 0.0207215ZM31.3432 4.22127C30.6833 7.89649 27.086 27.9573 26.5399 30.8488L19.2989 23.4086L14.3862 28.0307L15.7468 22.1173C15.7468 22.1173 25.1335 11.562 25.6989 10.9475C26.154 10.4555 26.2493 10.283 26.2493 10.1119C26.2493 9.88441 26.1439 9.72073 25.9006 9.72073C25.6818 9.72073 25.3846 9.95365 25.2271 10.0625C23.2257 11.4487 14.7038 16.8422 10.5093 19.4929L4.42388 16.7925L7.3777 15.4139C14.9027 11.8942 28.3045 5.62525 31.3432 4.22127Z" fill="#27282C" fill-opacity="0.95"/>
</svg>
