<svg width="35" height="35" xmlns="http://www.w3.org/2000/svg" fill="none">

 <g>
  <title>Layer 1</title>
  <path id="svg_1" fill-opacity="0.95" fill="#75797c" d="m32.5022,0.02072c-0.5818,-0.06854 -1.2142,0.03239 -1.8496,0.31143c-0.7876,0.34419 -13.1301,6.11206 -24.63557,11.49265l-3.80167,1.7775c-1.47209,0.663 -2.21536,1.7415 -2.21536,3.194c0,1.017 0.38744,2.3965 2.23587,3.2093l6.41702,2.8561c0.55488,1.8493 1.84371,6.143 2.16751,7.2845c0.1925,0.6767 0.6789,2.3815 1.9077,2.7801c0.252,0.0953 0.515,0.1443 0.7829,0.1443c0.7754,0 1.3337,-0.4009 1.6068,-0.6342l4.0786,-3.8322l4.9538,5.0893c0.1908,0.2158 1.2006,1.3065 2.5572,1.3065c1.6926,0 2.9766,-1.5653 3.2444,-3.0802c0.1453,-0.8303 4.923,-27.47454 4.923,-27.47065c0.4289,-2.13707 -0.3422,-3.24568 -0.8376,-3.71821c-0.4244,-0.4035 -0.9532,-0.64167 -1.535,-0.71022zm-1.159,4.20055c-0.6599,3.67522 -4.2572,23.73603 -4.8033,26.62753l-7.241,-7.4402l-4.9127,4.6221l1.3606,-5.9134c0,0 9.3867,-10.5553 9.9521,-11.1698c0.4551,-0.492 0.5504,-0.6645 0.5504,-0.8356c0,-0.22749 -0.1054,-0.39117 -0.3487,-0.39117c-0.2188,0 -0.516,0.23292 -0.6735,0.34177c-2.0014,1.3862 -10.5233,6.7797 -14.7178,9.4304l-6.08542,-2.7004l2.95382,-1.3786c7.525,-3.5197 20.9268,-9.78865 23.9655,-11.19263z"/>
 </g>
</svg>