<svg width="35" height="35" xmlns="http://www.w3.org/2000/svg" fill="none">

 <g>
  <title>Layer 1</title>
  <path id="svg_1" fill="white" d="m17.5222,0c-9.63642,0 -17.4811,7.83716 -17.4846,17.4727c-0.00175,3.08 0.80505,6.0868 2.3347,8.7363l-2.3723,8.791l9.15763,-2.1636c2.55347,1.393 5.42807,2.1243 8.35437,2.126l0.0068,0c9.6347,0 17.4759,-7.8389 17.4812,-17.4727c0.0035,-4.6707 -1.813,-9.06216 -5.1138,-12.36616c-3.3008,-3.30225 -7.6875,-5.12179 -12.364,-5.12354zm-0.0034,3.5c3.7384,0.00175 7.2516,1.45914 9.8926,4.09815c2.641,2.64245 4.0918,6.15365 4.0883,9.88815c-0.0035,7.707 -6.2731,13.9761 -13.9843,13.9761c-2.333,-0.0017 -4.6439,-0.5875 -6.6794,-1.6987l-1.1793,-0.6426l-1.30237,0.3076l-3.44565,0.8135l0.8409,-3.124l0.37944,-1.4014l-0.72468,-1.2578c-1.22162,-2.114 -1.86815,-4.5311 -1.8664,-6.9863c0.0035,-7.70354 6.27486,-13.9727 13.98086,-13.9727zm-6.1837,5.90625c-0.2923,0 -0.7649,0.10937 -1.1657,0.54687c-0.40074,0.43578 -1.53135,1.49118 -1.53135,3.64018c0,2.149 1.56555,4.2263 1.78435,4.5185c0.217,0.2905 3.022,4.8399 7.4622,6.5899c3.6893,1.4542 4.4386,1.1672 5.2402,1.0937c0.8016,-0.0717 2.586,-1.0544 2.95,-2.0747c0.364,-1.0202 0.3649,-1.8979 0.2564,-2.0781c-0.1085,-0.182 -0.4,-0.2905 -0.8375,-0.5093c-0.4358,-0.2187 -2.5834,-1.2732 -2.9842,-1.4185c-0.4008,-0.1452 -0.6939,-0.2187 -0.9845,0.2188c-0.2905,0.4375 -1.1254,1.4185 -1.3809,1.709c-0.2556,0.2922 -0.5094,0.3315 -0.9469,0.1128c-0.4376,-0.2205 -1.8444,-0.6829 -3.514,-2.1704c-1.2987,-1.1568 -2.1749,-2.584 -2.4304,-3.0215c-0.2538,-0.4358 -0.024,-0.6751 0.1948,-0.8921c0.196,-0.196 0.4341,-0.5101 0.6529,-0.7656c0.217,-0.2555 0.2923,-0.4376 0.4375,-0.7281c0.1453,-0.2905 0.0709,-0.5468 -0.0376,-0.7656c-0.1085,-0.2187 -0.9582,-2.3757 -1.3468,-3.2402c-0.3273,-0.72627 -0.6729,-0.74315 -0.9844,-0.7554c-0.2538,-0.0105 -0.5436,-0.01025 -0.8341,-0.01025z"/>
  <path id="svg_2" fill-opacity="0.7" fill="#383E43" d="m17.5222,0c-9.63642,0 -17.4811,7.83716 -17.4846,17.4727c-0.00175,3.08 0.80505,6.0868 2.3347,8.7363l-2.3723,8.791l9.15763,-2.1636c2.55347,1.393 5.42807,2.1243 8.35437,2.126l0.0068,0c9.6347,0 17.4759,-7.8389 17.4812,-17.4727c0.0035,-4.6707 -1.813,-9.06216 -5.1138,-12.36616c-3.3008,-3.30225 -7.6875,-5.12179 -12.364,-5.12354zm-0.0034,3.5c3.7384,0.00175 7.2516,1.45914 9.8926,4.09815c2.641,2.64245 4.0918,6.15365 4.0883,9.88815c-0.0035,7.707 -6.2731,13.9761 -13.9843,13.9761c-2.333,-0.0017 -4.6439,-0.5875 -6.6794,-1.6987l-1.1793,-0.6426l-1.30237,0.3076l-3.44565,0.8135l0.8409,-3.124l0.37944,-1.4014l-0.72468,-1.2578c-1.22162,-2.114 -1.86815,-4.5311 -1.8664,-6.9863c0.0035,-7.70354 6.27486,-13.9727 13.98086,-13.9727zm-6.1837,5.90625c-0.2923,0 -0.7649,0.10937 -1.1657,0.54687c-0.40074,0.43578 -1.53135,1.49118 -1.53135,3.64018c0,2.149 1.56555,4.2263 1.78435,4.5185c0.217,0.2905 3.022,4.8399 7.4622,6.5899c3.6893,1.4542 4.4386,1.1672 5.2402,1.0937c0.8016,-0.0717 2.586,-1.0544 2.95,-2.0747c0.364,-1.0202 0.3649,-1.8979 0.2564,-2.0781c-0.1085,-0.182 -0.4,-0.2905 -0.8375,-0.5093c-0.4358,-0.2187 -2.5834,-1.2732 -2.9842,-1.4185c-0.4008,-0.1452 -0.6939,-0.2187 -0.9845,0.2188c-0.2905,0.4375 -1.1254,1.4185 -1.3809,1.709c-0.2556,0.2922 -0.5094,0.3315 -0.9469,0.1128c-0.4376,-0.2205 -1.8444,-0.6829 -3.514,-2.1704c-1.2987,-1.1568 -2.1749,-2.584 -2.4304,-3.0215c-0.2538,-0.4358 -0.024,-0.6751 0.1948,-0.8921c0.196,-0.196 0.4341,-0.5101 0.6529,-0.7656c0.217,-0.2555 0.2923,-0.4376 0.4375,-0.7281c0.1453,-0.2905 0.0709,-0.5468 -0.0376,-0.7656c-0.1085,-0.2187 -0.9582,-2.3757 -1.3468,-3.2402c-0.3273,-0.72627 -0.6729,-0.74315 -0.9844,-0.7554c-0.2538,-0.0105 -0.5436,-0.01025 -0.8341,-0.01025z"/>
 </g>
</svg>